<svg width="931" height="313" viewBox="0 0 931 313" fill="none" xmlns="http://www.w3.org/2000/svg">
<rect width="931" height="313" fill="white"/>
<path d="M475.491 210.891C449.605 139.188 486.774 103.008 486.774 103.008H561.777C561.777 103.008 517.97 118.138 525.271 171.421C532.572 224.705 605.584 210.891 605.584 210.891L617.32 261.909C617.32 261.909 501.376 282.594 475.491 210.891Z" fill="#253780"/>
<path d="M367.337 98.4321H432.098L434.296 264.678H365.663L367.337 98.4321Z" fill="#253780"/>
<path d="M266.336 99.9573H332.487L333.155 265H265L266.336 99.9573Z" fill="#253780"/>
<path d="M654.83 75.3467L642.803 100.07V75.4781V51.9601L654.83 75.3467Z" fill="#C89B2B"/>
<rect x="266.525" y="49.626" width="369.097" height="50.3313" fill="#253780"/>
<path d="M488.287 99.8584H561.104L561.814 103.067H486.919L488.287 99.8584Z" fill="#253780"/>
<path d="M613.244 110.634L739.335 73.2436L613.244 42L565.984 59.8435L524.283 59.042V87.4452L565.984 86.6088L613.244 110.634Z" fill="#253780"/>
</svg>
