<svg width="925" height="306" viewBox="0 0 925 306" fill="none" xmlns="http://www.w3.org/2000/svg">
<rect width="925" height="306" fill="#1A1D26"/>
<path d="M314 161.726H328.738H354.319H369.056V172.709H358.022V171.617H345.231V211.688H334.86L335.573 171.617H325.588V212.007H314V161.726Z" fill="white"/>
<path d="M358.021 172.709H369.068C369.068 172.709 362.297 179.622 362.297 191.266C362.297 204.366 367.642 202.546 367.642 202.546L369.068 211.643C369.068 211.643 352.677 214.918 352.677 191.266C352.676 182.169 358.021 172.709 358.021 172.709Z" fill="white"/>
<path d="M475.602 102.644C462.475 66.2837 481.324 47.9368 481.324 47.9368H519.357C519.357 47.9368 497.143 55.6091 500.845 82.6291C504.548 109.649 541.572 102.644 541.572 102.644L547.523 128.515C547.523 128.515 488.729 139.004 475.602 102.644Z" fill="white"/>
<path d="M420.758 45.6165H453.597L454.712 129.919H419.908L420.758 45.6165Z" fill="white"/>
<path d="M369.541 46.3899H403.085L403.424 130.082H368.863L369.541 46.3899Z" fill="white"/>
<path d="M566.544 33.9099L560.445 46.4469V33.9766V22.0507L566.544 33.9099Z" fill="white"/>
<rect x="369.636" y="20.8671" width="187.167" height="25.5228" fill="white"/>
<path d="M375.344 25.642H501.372V40.0452H375.344V25.642Z" fill="white"/>
<path d="M545.456 51.8039L609.396 32.8435L545.456 17L521.491 26.0484L500.344 25.6419V40.0451L521.491 39.6209L545.456 51.8039Z" fill="white"/>
<path d="M481.371 46.3398L519.376 46.3399L519.376 47.9669H481.371V46.3398Z" fill="white"/>
<path d="M601.861 175.51C601.637 173.365 600.691 171.696 599.024 170.501C597.373 169.306 595.226 168.709 592.581 168.709C590.722 168.709 589.127 168.995 587.797 169.568C586.466 170.141 585.448 170.919 584.743 171.901C584.038 172.883 583.677 174.004 583.661 175.264C583.661 176.312 583.894 177.22 584.359 177.989C584.839 178.759 585.489 179.413 586.306 179.953C587.123 180.477 588.029 180.919 589.023 181.279C590.016 181.639 591.018 181.942 592.028 182.187L596.644 183.366C598.503 183.808 600.29 184.405 602.005 185.158C603.736 185.911 605.283 186.86 606.646 188.006C608.024 189.152 609.114 190.535 609.915 192.155C610.717 193.776 611.117 195.674 611.117 197.851C611.117 200.797 610.38 203.391 608.905 205.634C607.431 207.86 605.299 209.603 602.51 210.863C599.737 212.107 596.38 212.729 592.437 212.729C588.606 212.729 585.28 212.123 582.459 210.912C579.654 209.701 577.458 207.933 575.872 205.609C574.301 203.285 573.451 200.453 573.323 197.114H582.099C582.227 198.866 582.756 200.322 583.685 201.485C584.615 202.647 585.825 203.514 587.316 204.087C588.822 204.66 590.505 204.946 592.365 204.946C594.304 204.946 596.003 204.652 597.461 204.062C598.936 203.457 600.09 202.622 600.924 201.558C601.757 200.478 602.182 199.218 602.198 197.777C602.182 196.468 601.805 195.388 601.068 194.537C600.33 193.669 599.297 192.949 597.966 192.376C596.652 191.787 595.113 191.263 593.35 190.805L587.748 189.332C583.693 188.268 580.488 186.656 578.132 184.495C575.792 182.318 574.622 179.43 574.622 175.829C574.622 172.866 575.407 170.272 576.978 168.046C578.564 165.82 580.72 164.093 583.445 162.866C586.17 161.622 589.255 161 592.701 161C596.195 161 599.257 161.622 601.885 162.866C604.53 164.093 606.605 165.804 608.112 167.997C609.619 170.174 610.396 172.678 610.444 175.51H601.861Z" fill="white"/>
<path d="M533.227 211.968H523.707L541.041 161.687H552.052L569.41 211.968H559.89L546.739 171.999H546.354L533.227 211.968ZM533.54 192.253H559.505V199.569H533.54V192.253Z" fill="white"/>
<path d="M517.245 161.687V211.968H508.326V161.687H517.245Z" fill="white"/>
<path d="M464.292 211.968V161.687H482.757C486.539 161.687 489.713 162.358 492.277 163.701C494.858 165.043 496.805 166.925 498.12 169.347C499.45 171.753 500.115 174.56 500.115 177.768C500.115 180.993 499.442 183.791 498.096 186.165C496.765 188.522 494.802 190.347 492.205 191.64C489.609 192.916 486.419 193.555 482.637 193.555H469.486V185.993H481.434C483.646 185.993 485.457 185.682 486.868 185.06C488.278 184.422 489.32 183.497 489.993 182.286C490.683 181.058 491.027 179.552 491.027 177.768C491.027 175.984 490.683 174.462 489.993 173.202C489.304 171.925 488.254 170.959 486.844 170.305C485.433 169.634 483.614 169.298 481.386 169.298H473.212V211.968H464.292ZM489.729 189.184L501.918 211.968H491.965L479.992 189.184H489.729Z" fill="white"/>
<path d="M417.435 169.323V161.687H456.719V169.323H441.501V211.968H432.653V169.323H417.435Z" fill="white"/>
<path d="M378.475 211.968V161.687H410.499V169.323H387.394V182.973H408.84V190.608H387.394V204.332H410.691V211.968H378.475Z" fill="white"/>
<path d="M755.132 268.406C752.861 268.406 750.897 267.878 749.239 266.822C747.581 265.755 746.298 264.282 745.39 262.403C744.493 260.513 744.044 258.337 744.044 255.877C744.044 253.427 744.493 251.252 745.39 249.351C746.298 247.439 747.55 245.945 749.144 244.868C750.749 243.781 752.603 243.237 754.704 243.237C756.024 243.237 757.297 243.48 758.521 243.965C759.746 244.441 760.845 245.174 761.816 246.167C762.798 247.149 763.574 248.39 764.145 249.889C764.715 251.378 765 253.142 765 255.18V256.574H745.992V254.087H762.117C762.117 252.524 761.8 251.12 761.167 249.874C760.544 248.617 759.672 247.624 758.553 246.896C757.444 246.167 756.161 245.803 754.704 245.803C753.162 245.803 751.805 246.215 750.633 247.038C749.461 247.862 748.542 248.95 747.877 250.301C747.222 251.653 746.89 253.131 746.879 254.736V256.225C746.879 258.158 747.212 259.847 747.877 261.294C748.553 262.73 749.509 263.844 750.744 264.636C751.98 265.428 753.442 265.824 755.132 265.824C756.283 265.824 757.291 265.645 758.157 265.286C759.034 264.927 759.767 264.446 760.359 263.844C760.961 263.232 761.415 262.561 761.721 261.833L764.398 262.704C764.028 263.728 763.421 264.673 762.576 265.539C761.742 266.405 760.697 267.102 759.44 267.63C758.194 268.147 756.758 268.406 755.132 268.406Z" fill="white"/>
<path d="M729.97 268.406C727.795 268.406 725.9 267.862 724.284 266.775C722.679 265.687 721.433 264.198 720.546 262.308C719.659 260.418 719.215 258.263 719.215 255.845C719.215 253.406 719.664 251.236 720.562 249.335C721.47 247.434 722.726 245.945 724.332 244.868C725.937 243.781 727.8 243.237 729.923 243.237C731.549 243.237 733.022 243.553 734.342 244.187C735.662 244.81 736.75 245.692 737.605 246.832C738.471 247.962 739.015 249.282 739.237 250.792H736.386C736.09 249.419 735.377 248.247 734.247 247.276C733.128 246.294 731.702 245.803 729.97 245.803C728.418 245.803 727.045 246.225 725.852 247.07C724.659 247.904 723.724 249.071 723.049 250.57C722.383 252.059 722.051 253.786 722.051 255.75C722.051 257.725 722.378 259.472 723.033 260.993C723.687 262.503 724.606 263.686 725.789 264.541C726.982 265.396 728.376 265.824 729.97 265.824C731.048 265.824 732.03 265.623 732.917 265.222C733.814 264.81 734.564 264.23 735.166 263.48C735.778 262.73 736.19 261.838 736.401 260.803H739.253C739.041 262.271 738.519 263.58 737.684 264.731C736.861 265.872 735.789 266.769 734.469 267.424C733.16 268.079 731.66 268.406 729.97 268.406Z" fill="white"/>
<path d="M710.175 267.899V243.569H713.01V267.899H710.175ZM711.616 239.388C711.035 239.388 710.539 239.192 710.127 238.802C709.715 238.4 709.51 237.92 709.51 237.36C709.51 236.8 709.715 236.325 710.127 235.935C710.539 235.533 711.035 235.333 711.616 235.333C712.197 235.333 712.693 235.533 713.105 235.935C713.517 236.325 713.723 236.8 713.723 237.36C713.723 237.92 713.517 238.4 713.105 238.802C712.693 239.192 712.197 239.388 711.616 239.388Z" fill="white"/>
<path d="M704.627 243.569L695.741 267.899H692.731L683.845 243.569H686.902L694.125 264.177H694.347L701.57 243.569H704.627Z" fill="white"/>
<path d="M669.154 267.899V243.569H671.894V247.308H672.1C672.586 246.083 673.431 245.095 674.634 244.346C675.849 243.585 677.222 243.205 678.753 243.205C678.985 243.205 679.244 243.21 679.529 243.221C679.814 243.231 680.052 243.242 680.242 243.253V246.12C680.115 246.098 679.893 246.067 679.576 246.025C679.26 245.982 678.916 245.961 678.547 245.961C677.28 245.961 676.15 246.23 675.157 246.769C674.175 247.297 673.399 248.031 672.829 248.971C672.258 249.911 671.973 250.982 671.973 252.186V267.899H669.154Z" fill="white"/>
<path d="M653.073 268.406C650.802 268.406 648.838 267.878 647.18 266.822C645.522 265.755 644.239 264.282 643.331 262.403C642.434 260.513 641.985 258.337 641.985 255.877C641.985 253.427 642.434 251.252 643.331 249.351C644.239 247.439 645.491 245.945 647.085 244.868C648.69 243.781 650.544 243.237 652.645 243.237C653.965 243.237 655.237 243.48 656.462 243.965C657.687 244.441 658.786 245.174 659.757 246.167C660.739 247.149 661.515 248.39 662.085 249.889C662.656 251.378 662.941 253.142 662.941 255.18V256.574H643.933V254.087H660.058C660.058 252.524 659.741 251.12 659.108 249.874C658.485 248.617 657.613 247.624 656.494 246.896C655.385 246.167 654.102 245.803 652.645 245.803C651.103 245.803 649.746 246.215 648.574 247.038C647.402 247.862 646.483 248.95 645.818 250.301C645.163 251.653 644.831 253.131 644.82 254.736V256.225C644.82 258.158 645.153 259.847 645.818 261.294C646.494 262.73 647.45 263.844 648.685 264.636C649.921 265.428 651.383 265.824 653.073 265.824C654.224 265.824 655.232 265.645 656.098 265.286C656.975 264.927 657.708 264.446 658.3 263.844C658.902 263.232 659.356 262.561 659.662 261.833L662.339 262.704C661.969 263.728 661.362 264.673 660.517 265.539C659.683 266.405 658.638 267.102 657.381 267.63C656.135 268.147 654.699 268.406 653.073 268.406Z" fill="white"/>
<path d="M633.384 243.569C633.204 241.764 632.407 240.327 630.992 239.261C629.577 238.194 627.798 237.661 625.654 237.661C624.144 237.661 622.813 237.92 621.662 238.437C620.522 238.955 619.624 239.673 618.97 240.591C618.325 241.5 618.003 242.534 618.003 243.696C618.003 244.551 618.188 245.301 618.558 245.945C618.927 246.589 619.424 247.144 620.047 247.608C620.68 248.062 621.377 248.453 622.138 248.781C622.908 249.108 623.685 249.382 624.466 249.604L627.887 250.586C628.922 250.871 629.957 251.236 630.992 251.679C632.027 252.123 632.972 252.682 633.827 253.358C634.693 254.023 635.385 254.842 635.902 255.813C636.43 256.774 636.694 257.931 636.694 259.282C636.694 261.014 636.245 262.572 635.348 263.955C634.45 265.338 633.162 266.437 631.483 267.25C629.804 268.052 627.792 268.453 625.448 268.453C623.241 268.453 621.324 268.089 619.698 267.361C618.072 266.621 616.794 265.602 615.865 264.303C614.936 263.005 614.413 261.5 614.297 259.789H617.338C617.444 261.067 617.866 262.149 618.605 263.036C619.344 263.923 620.305 264.599 621.488 265.064C622.671 265.518 623.991 265.745 625.448 265.745C627.064 265.745 628.5 265.476 629.756 264.937C631.024 264.388 632.016 263.628 632.734 262.656C633.463 261.674 633.827 260.534 633.827 259.235C633.827 258.137 633.542 257.218 632.972 256.479C632.402 255.729 631.604 255.101 630.58 254.594C629.566 254.087 628.389 253.638 627.048 253.247L623.167 252.107C620.622 251.347 618.648 250.296 617.243 248.955C615.839 247.614 615.136 245.903 615.136 243.823C615.136 242.08 615.601 240.549 616.53 239.229C617.47 237.899 618.737 236.864 620.332 236.125C621.937 235.375 623.737 235 625.733 235C627.75 235 629.535 235.37 631.087 236.109C632.639 236.848 633.869 237.867 634.778 239.166C635.696 240.454 636.187 241.922 636.251 243.569H633.384Z" fill="white"/>
<path d="M579.628 252.693V267.899H576.808V243.569H579.549V247.387H579.802C580.372 246.141 581.259 245.143 582.463 244.393C583.678 243.633 585.177 243.253 586.962 243.253C588.598 243.253 590.035 243.596 591.27 244.282C592.516 244.958 593.482 245.956 594.169 247.276C594.866 248.596 595.214 250.217 595.214 252.139V267.899H592.395V252.313C592.395 250.317 591.835 248.738 590.716 247.577C589.607 246.415 588.118 245.834 586.249 245.834C584.971 245.834 583.836 246.109 582.843 246.658C581.851 247.207 581.064 247.999 580.483 249.034C579.913 250.058 579.628 251.278 579.628 252.693Z" fill="white"/>
<path d="M559.911 268.406C557.81 268.406 555.951 267.873 554.336 266.806C552.731 265.74 551.474 264.267 550.566 262.387C549.658 260.497 549.204 258.316 549.204 255.845C549.204 253.353 549.658 251.162 550.566 249.272C551.474 247.371 552.731 245.892 554.336 244.837C555.951 243.77 557.81 243.237 559.911 243.237C562.013 243.237 563.866 243.77 565.471 244.837C567.076 245.903 568.333 247.381 569.241 249.272C570.16 251.162 570.619 253.353 570.619 255.845C570.619 258.316 570.165 260.497 569.257 262.387C568.349 264.267 567.087 265.74 565.471 266.806C563.866 267.873 562.013 268.406 559.911 268.406ZM559.911 265.824C561.601 265.824 563.032 265.37 564.204 264.462C565.376 263.554 566.263 262.345 566.865 260.835C567.477 259.325 567.784 257.661 567.784 255.845C567.784 254.029 567.477 252.36 566.865 250.84C566.263 249.319 565.376 248.099 564.204 247.181C563.032 246.262 561.601 245.803 559.911 245.803C558.232 245.803 556.801 246.262 555.619 247.181C554.447 248.099 553.554 249.319 552.942 250.84C552.34 252.36 552.039 254.029 552.039 255.845C552.039 257.661 552.34 259.325 552.942 260.835C553.554 262.345 554.447 263.554 555.619 264.462C556.791 265.37 558.222 265.824 559.911 265.824Z" fill="white"/>
<path d="M540.163 267.899V243.569H542.999V267.899H540.163ZM541.605 239.388C541.024 239.388 540.528 239.192 540.116 238.802C539.704 238.4 539.498 237.92 539.498 237.36C539.498 236.8 539.704 236.325 540.116 235.935C540.528 235.533 541.024 235.333 541.605 235.333C542.185 235.333 542.682 235.533 543.094 235.935C543.505 236.325 543.711 236.8 543.711 237.36C543.711 237.92 543.505 238.4 543.094 238.802C542.682 239.192 542.185 239.388 541.605 239.388Z" fill="white"/>
<path d="M533.728 243.569V246.024H522.118V243.569H533.728ZM525.745 237.74H528.58V261.547C528.58 262.561 528.754 263.358 529.103 263.939C529.451 264.509 529.906 264.916 530.465 265.159C531.025 265.391 531.621 265.507 532.255 265.507C532.625 265.507 532.941 265.486 533.205 265.444C533.469 265.391 533.702 265.338 533.902 265.285L534.504 267.836C534.23 267.941 533.892 268.036 533.491 268.121C533.089 268.216 532.593 268.263 532.002 268.263C530.967 268.263 529.969 268.036 529.008 267.582C528.058 267.128 527.276 266.452 526.664 265.555C526.051 264.657 525.745 263.543 525.745 262.213V237.74Z" fill="white"/>
<path d="M513.861 258.601V243.569H516.681V267.899H513.861V263.86H513.64C513.069 265.106 512.167 266.146 510.931 266.98C509.696 267.804 508.186 268.216 506.401 268.216C504.849 268.216 503.471 267.878 502.267 267.202C501.063 266.516 500.118 265.513 499.431 264.193C498.745 262.873 498.402 261.252 498.402 259.33V243.569H501.221V259.156C501.221 261.056 501.781 262.588 502.9 263.749C504.02 264.9 505.456 265.476 507.209 265.476C508.307 265.476 509.363 265.212 510.377 264.684C511.39 264.156 512.225 263.385 512.879 262.371C513.534 261.347 513.861 260.09 513.861 258.601Z" fill="white"/>
<path d="M483.077 268.406C480.902 268.406 479.006 267.862 477.39 266.775C475.785 265.687 474.539 264.198 473.652 262.308C472.765 260.418 472.322 258.263 472.322 255.845C472.322 253.406 472.771 251.236 473.668 249.335C474.576 247.434 475.833 245.945 477.438 244.868C479.043 243.781 480.907 243.237 483.029 243.237C484.656 243.237 486.129 243.553 487.449 244.187C488.769 244.81 489.856 245.692 490.712 246.832C491.578 247.962 492.121 249.282 492.343 250.792H489.492C489.196 249.419 488.484 248.247 487.354 247.276C486.234 246.294 484.809 245.803 483.077 245.803C481.525 245.803 480.152 246.225 478.959 247.07C477.765 247.904 476.831 249.071 476.155 250.57C475.49 252.059 475.157 253.786 475.157 255.75C475.157 257.725 475.484 259.472 476.139 260.993C476.794 262.503 477.713 263.686 478.895 264.541C480.089 265.396 481.482 265.824 483.077 265.824C484.154 265.824 485.136 265.623 486.023 265.222C486.921 264.81 487.67 264.23 488.272 263.48C488.885 262.73 489.297 261.838 489.508 260.803H492.359C492.148 262.271 491.625 263.58 490.791 264.731C489.967 265.872 488.895 266.769 487.575 267.424C486.266 268.079 484.766 268.406 483.077 268.406Z" fill="white"/>
<path d="M457.492 268.406C455.221 268.406 453.257 267.878 451.599 266.822C449.942 265.755 448.659 264.282 447.75 262.403C446.853 260.513 446.404 258.337 446.404 255.877C446.404 253.427 446.853 251.252 447.75 249.351C448.659 247.439 449.91 245.945 451.504 244.868C453.11 243.781 454.963 243.237 457.064 243.237C458.384 243.237 459.657 243.48 460.882 243.965C462.106 244.441 463.205 245.174 464.176 246.167C465.158 247.149 465.934 248.39 466.505 249.889C467.075 251.378 467.36 253.142 467.36 255.18V256.574H448.352V254.087H464.477C464.477 252.524 464.16 251.12 463.527 249.874C462.904 248.617 462.033 247.624 460.913 246.896C459.804 246.167 458.521 245.803 457.064 245.803C455.522 245.803 454.166 246.215 452.993 247.038C451.821 247.862 450.903 248.95 450.237 250.301C449.583 251.653 449.25 253.131 449.239 254.736V256.225C449.239 258.158 449.572 259.847 450.237 261.294C450.913 262.73 451.869 263.844 453.104 264.636C454.34 265.428 455.802 265.824 457.492 265.824C458.643 265.824 459.651 265.645 460.517 265.286C461.394 264.927 462.128 264.446 462.719 263.844C463.321 263.232 463.775 262.561 464.081 261.833L466.758 262.704C466.388 263.728 465.781 264.673 464.937 265.539C464.102 266.405 463.057 267.102 461.8 267.63C460.554 268.147 459.118 268.406 457.492 268.406Z" fill="white"/>
<path d="M426.921 243.569L433.194 253.944L439.466 243.569H442.745L434.92 255.734L442.745 267.899H439.466L433.194 257.857L426.921 267.899H423.658L431.388 255.734L423.658 243.569H426.921Z" fill="white"/>
<path d="M399.281 267.899V235.459H418.098V238.12H402.243V250.333H417.1V252.994H402.243V265.238H418.415V267.899H399.281Z" fill="white"/>
<path d="M370.069 268.406C367.798 268.406 365.834 267.878 364.176 266.822C362.518 265.755 361.235 264.282 360.327 262.403C359.43 260.513 358.981 258.337 358.981 255.877C358.981 253.427 359.43 251.252 360.327 249.351C361.235 247.439 362.487 245.945 364.081 244.868C365.686 243.781 367.539 243.237 369.641 243.237C370.961 243.237 372.233 243.48 373.458 243.965C374.683 244.441 375.781 245.174 376.753 246.167C377.735 247.149 378.511 248.39 379.081 249.889C379.652 251.378 379.937 253.142 379.937 255.18V256.574H360.929V254.087H377.054C377.054 252.524 376.737 251.12 376.103 249.874C375.48 248.617 374.609 247.624 373.49 246.896C372.381 246.167 371.098 245.803 369.641 245.803C368.099 245.803 366.742 246.215 365.57 247.038C364.398 247.862 363.479 248.95 362.814 250.301C362.159 251.653 361.827 253.131 361.816 254.736V256.225C361.816 258.158 362.149 259.847 362.814 261.294C363.49 262.73 364.445 263.844 365.681 264.636C366.916 265.428 368.379 265.824 370.069 265.824C371.22 265.824 372.228 265.645 373.094 265.286C373.97 264.927 374.704 264.446 375.296 263.844C375.898 263.232 376.352 262.561 376.658 261.833L379.335 262.704C378.965 263.728 378.358 264.673 377.513 265.539C376.679 266.405 375.634 267.102 374.377 267.63C373.131 268.147 371.695 268.406 370.069 268.406Z" fill="white"/>
<path d="M342.725 277.53C341.067 277.53 339.615 277.313 338.369 276.88C337.123 276.458 336.073 275.877 335.217 275.138C334.362 274.399 333.697 273.57 333.221 272.651L335.534 271.13C335.883 271.743 336.347 272.345 336.928 272.936C337.519 273.528 338.285 274.019 339.225 274.409C340.175 274.8 341.342 274.995 342.725 274.995C344.88 274.995 346.617 274.457 347.937 273.38C349.267 272.303 349.932 270.629 349.932 268.358V262.878H349.679C349.352 263.617 348.882 264.356 348.269 265.095C347.657 265.824 346.854 266.431 345.862 266.917C344.88 267.403 343.66 267.646 342.203 267.646C340.26 267.646 338.533 267.165 337.023 266.204C335.524 265.243 334.341 263.871 333.475 262.086C332.62 260.291 332.192 258.152 332.192 255.671C332.192 253.21 332.609 251.046 333.443 249.177C334.288 247.308 335.465 245.85 336.975 244.805C338.486 243.759 340.244 243.237 342.25 243.237C343.739 243.237 344.975 243.501 345.957 244.029C346.939 244.546 347.725 245.19 348.317 245.961C348.919 246.732 349.389 247.482 349.726 248.21H350.012V243.569H352.768V268.533C352.768 270.592 352.329 272.287 351.453 273.617C350.577 274.948 349.383 275.93 347.873 276.563C346.363 277.208 344.647 277.53 342.725 277.53ZM342.535 265.064C344.098 265.064 345.434 264.689 346.543 263.939C347.651 263.179 348.502 262.091 349.093 260.676C349.684 259.261 349.98 257.577 349.98 255.623C349.98 253.723 349.69 252.038 349.109 250.57C348.528 249.092 347.683 247.931 346.574 247.086C345.476 246.23 344.13 245.803 342.535 245.803C340.909 245.803 339.536 246.241 338.417 247.117C337.298 247.994 336.453 249.177 335.883 250.666C335.312 252.144 335.027 253.797 335.027 255.623C335.027 257.482 335.318 259.124 335.898 260.55C336.479 261.965 337.329 263.073 338.449 263.876C339.568 264.668 340.93 265.064 342.535 265.064Z" fill="white"/>
<path d="M318.284 267.899V243.569H321.025V247.308H321.231C321.716 246.083 322.561 245.095 323.765 244.346C324.979 243.585 326.352 243.205 327.883 243.205C328.116 243.205 328.374 243.21 328.659 243.221C328.945 243.231 329.182 243.242 329.372 243.253V246.12C329.245 246.098 329.024 246.067 328.707 246.025C328.39 245.982 328.047 245.961 327.677 245.961C326.41 245.961 325.28 246.23 324.288 246.769C323.306 247.297 322.529 248.031 321.959 248.971C321.389 249.911 321.104 250.982 321.104 252.186V267.899H318.284Z" fill="white"/>
<path d="M300.251 268.454C298.783 268.454 297.442 268.168 296.228 267.598C295.013 267.017 294.047 266.183 293.329 265.095C292.611 263.997 292.252 262.667 292.252 261.104C292.252 259.9 292.479 258.886 292.933 258.063C293.387 257.239 294.031 256.563 294.866 256.035C295.7 255.507 296.687 255.09 297.828 254.784C298.968 254.478 300.225 254.24 301.597 254.071C302.96 253.902 304.111 253.754 305.05 253.628C306.001 253.501 306.724 253.3 307.22 253.026C307.717 252.751 307.965 252.308 307.965 251.695V251.125C307.965 249.467 307.469 248.163 306.476 247.212C305.494 246.252 304.079 245.771 302.231 245.771C300.478 245.771 299.047 246.156 297.938 246.927C296.84 247.698 296.069 248.606 295.626 249.652L292.949 248.686C293.498 247.355 294.258 246.294 295.23 245.502C296.201 244.699 297.289 244.124 298.493 243.775C299.697 243.416 300.916 243.237 302.152 243.237C303.081 243.237 304.047 243.358 305.05 243.601C306.064 243.844 307.004 244.266 307.87 244.868C308.736 245.46 309.438 246.288 309.977 247.355C310.515 248.411 310.784 249.752 310.784 251.378V267.899H307.965V264.05H307.791C307.453 264.768 306.951 265.465 306.286 266.141C305.621 266.817 304.786 267.371 303.783 267.804C302.78 268.237 301.603 268.454 300.251 268.454ZM300.631 265.872C302.131 265.872 303.43 265.539 304.528 264.874C305.626 264.208 306.471 263.327 307.062 262.229C307.664 261.12 307.965 259.9 307.965 258.57V255.053C307.754 255.254 307.4 255.433 306.904 255.592C306.418 255.75 305.853 255.893 305.209 256.019C304.575 256.136 303.942 256.236 303.308 256.32C302.674 256.405 302.104 256.479 301.597 256.542C300.225 256.711 299.052 256.975 298.081 257.334C297.109 257.693 296.365 258.189 295.848 258.823C295.33 259.446 295.071 260.249 295.071 261.231C295.071 262.709 295.599 263.855 296.655 264.668C297.711 265.47 299.037 265.872 300.631 265.872Z" fill="white"/>
<path d="M270.27 252.693V267.899H267.451V235.459H270.27V247.387H270.524C271.094 246.13 271.976 245.127 273.169 244.377C274.373 243.627 275.893 243.252 277.731 243.252C279.378 243.252 280.825 243.59 282.071 244.266C283.317 244.942 284.288 245.94 284.985 247.26C285.682 248.58 286.031 250.206 286.031 252.139V267.899H283.195V252.313C283.195 250.306 282.636 248.728 281.516 247.577C280.408 246.415 278.908 245.834 277.018 245.834C275.719 245.834 274.563 246.109 273.549 246.658C272.535 247.207 271.733 247.999 271.141 249.034C270.561 250.058 270.27 251.278 270.27 252.693Z" fill="white"/>
<path d="M252.126 268.406C249.951 268.406 248.055 267.862 246.44 266.775C244.834 265.687 243.588 264.198 242.701 262.308C241.814 260.418 241.371 258.263 241.371 255.845C241.371 253.406 241.82 251.236 242.717 249.335C243.625 247.434 244.882 245.945 246.487 244.868C248.092 243.781 249.956 243.237 252.078 243.237C253.705 243.237 255.178 243.553 256.498 244.187C257.818 244.81 258.905 245.692 259.761 246.832C260.627 247.962 261.17 249.282 261.392 250.792H258.541C258.245 249.419 257.533 248.247 256.403 247.276C255.283 246.294 253.858 245.803 252.126 245.803C250.574 245.803 249.201 246.225 248.008 247.07C246.814 247.904 245.88 249.071 245.204 250.57C244.539 252.059 244.206 253.786 244.206 255.75C244.206 257.725 244.534 259.472 245.188 260.993C245.843 262.503 246.762 263.686 247.944 264.541C249.138 265.396 250.531 265.824 252.126 265.824C253.203 265.824 254.185 265.623 255.072 265.222C255.97 264.81 256.72 264.23 257.321 263.48C257.934 262.73 258.346 261.838 258.557 260.803H261.408C261.197 262.271 260.674 263.58 259.84 264.731C259.016 265.872 257.944 266.769 256.624 267.424C255.315 268.079 253.816 268.406 252.126 268.406Z" fill="white"/>
<path d="M236.1 248.907L233.518 249.636C233.265 248.907 232.906 248.247 232.441 247.656C231.976 247.065 231.369 246.595 230.619 246.246C229.88 245.898 228.962 245.724 227.863 245.724C226.216 245.724 224.864 246.114 223.808 246.896C222.752 247.677 222.224 248.686 222.224 249.921C222.224 250.966 222.583 251.817 223.302 252.471C224.03 253.115 225.149 253.628 226.66 254.008L230.334 254.911C232.372 255.407 233.898 256.194 234.912 257.271C235.936 258.348 236.448 259.699 236.448 261.326C236.448 262.698 236.068 263.918 235.308 264.985C234.548 266.051 233.486 266.891 232.124 267.503C230.773 268.105 229.204 268.406 227.42 268.406C225.044 268.406 223.085 267.873 221.543 266.806C220.002 265.729 219.014 264.177 218.581 262.149L221.29 261.484C221.638 262.931 222.319 264.024 223.333 264.763C224.358 265.502 225.704 265.872 227.372 265.872C229.241 265.872 230.736 265.455 231.855 264.62C232.974 263.776 233.534 262.72 233.534 261.452C233.534 260.47 233.207 259.647 232.552 258.981C231.897 258.306 230.905 257.809 229.574 257.492L225.598 256.542C223.486 256.035 221.923 255.233 220.91 254.134C219.896 253.036 219.389 251.674 219.389 250.048C219.389 248.707 219.753 247.529 220.482 246.516C221.211 245.491 222.214 244.689 223.492 244.108C224.769 243.527 226.227 243.237 227.863 243.237C230.091 243.237 231.871 243.744 233.201 244.757C234.542 245.76 235.509 247.144 236.1 248.907Z" fill="white"/>
<path d="M209.462 267.899V243.569H212.297V267.899H209.462ZM210.903 239.388C210.322 239.388 209.826 239.192 209.414 238.802C209.002 238.4 208.796 237.92 208.796 237.36C208.796 236.8 209.002 236.325 209.414 235.935C209.826 235.533 210.322 235.333 210.903 235.333C211.484 235.333 211.98 235.533 212.392 235.935C212.804 236.325 213.01 236.8 213.01 237.36C213.01 237.92 212.804 238.4 212.392 238.802C211.98 239.192 211.484 239.388 210.903 239.388Z" fill="white"/>
<path d="M187.504 267.899H178V235.459H188.074C191.168 235.459 193.813 236.103 196.01 237.392C198.217 238.68 199.906 240.528 201.078 242.936C202.251 245.343 202.837 248.231 202.837 251.6C202.837 255 202.235 257.92 201.031 260.359C199.838 262.788 198.095 264.652 195.804 265.951C193.523 267.25 190.756 267.899 187.504 267.899ZM180.962 265.238H187.33C190.117 265.238 192.451 264.689 194.331 263.591C196.21 262.492 197.62 260.924 198.56 258.886C199.5 256.848 199.97 254.419 199.97 251.6C199.959 248.802 199.494 246.394 198.576 244.377C197.668 242.36 196.316 240.813 194.521 239.736C192.736 238.659 190.529 238.12 187.9 238.12H180.962V265.238Z" fill="white"/>
</svg>
