<svg width="931" height="313" viewBox="0 0 931 313" fill="none" xmlns="http://www.w3.org/2000/svg">
<rect width="931" height="313" fill="white"/>
<path d="M255 208H275.68H311.575H332.255V223.091H316.771V221.591H298.823V276.652H284.271L285.271 221.591H271.261V277.091H255V208Z" fill="#253780"/>
<path d="M316.771 223.091H332.271C332.271 223.091 322.771 232.591 322.771 248.591C322.771 266.591 330.271 264.091 330.271 264.091L332.271 276.591C332.271 276.591 309.271 281.091 309.271 248.591C309.271 236.091 316.771 223.091 316.771 223.091Z" fill="#253780"/>
<path d="M474.772 153.567C456.599 103.229 482.693 77.8295 482.693 77.8295H535.348C535.348 77.8295 504.594 88.4513 509.72 125.858C514.845 163.265 566.102 153.567 566.102 153.567L574.341 189.384C574.341 189.384 492.945 203.905 474.772 153.567Z" fill="#253780"/>
<path d="M398.844 74.6173H444.308L445.852 191.328H397.669L398.844 74.6173Z" fill="#253780"/>
<path d="M327.938 75.688H374.378L374.847 191.554H327L327.938 75.688Z" fill="#253780"/>
<path d="M600.674 58.4105L592.231 75.7669V58.5028V41.9923L600.674 58.4105Z" fill="#C89B2B"/>
<rect x="328.071" y="40.3537" width="259.119" height="35.3344" fill="#253780"/>
<path d="M571.48 83.1832L660 56.9341L571.48 35L538.301 47.5268L509.026 46.9641V66.9042L538.301 66.3169L571.48 83.1832Z" fill="#253780"/>
<path d="M328.074 54.9401H652.024L651.525 59.4266L328.074 59.9251L328.074 54.9401Z" fill="#DEAC31"/>
<path d="M483.756 75.6187H534.876L535.374 77.8712H482.795L483.756 75.6187Z" fill="#253780"/>
<path d="M652.024 54.9401L660 56.9341L651.525 59.4266L652.024 54.9401Z" fill="#DEAC31"/>
<path d="M664.411 229.623C664.186 227.149 663.185 225.226 661.408 223.854C659.654 222.46 657.146 221.762 653.885 221.762C651.726 221.762 649.927 222.044 648.487 222.606C647.048 223.168 645.968 223.944 645.249 224.934C644.529 225.901 644.158 227.014 644.135 228.273C644.09 229.308 644.293 230.219 644.743 231.006C645.215 231.793 645.89 232.49 646.767 233.098C647.666 233.682 648.746 234.2 650.005 234.649C651.265 235.099 652.682 235.493 654.256 235.83L660.194 237.18C663.612 237.922 666.626 238.911 669.235 240.148C671.866 241.385 674.07 242.859 675.847 244.568C677.646 246.277 679.007 248.245 679.929 250.472C680.851 252.698 681.323 255.195 681.346 257.961C681.323 262.324 680.221 266.069 678.04 269.195C675.858 272.321 672.721 274.716 668.627 276.381C664.557 278.045 659.643 278.877 653.885 278.877C648.105 278.877 643.067 278.011 638.771 276.279C634.476 274.548 631.136 271.916 628.752 268.385C626.368 264.854 625.142 260.39 625.075 254.992H641.065C641.2 257.219 641.796 259.074 642.853 260.559C643.91 262.043 645.361 263.167 647.205 263.932C649.072 264.697 651.231 265.079 653.683 265.079C655.932 265.079 657.843 264.776 659.418 264.168C661.014 263.561 662.24 262.718 663.095 261.638C663.949 260.559 664.388 259.322 664.411 257.927C664.388 256.623 663.983 255.509 663.196 254.587C662.409 253.643 661.194 252.833 659.553 252.158C657.933 251.461 655.864 250.82 653.345 250.235L646.126 248.549C640.143 247.177 635.431 244.961 631.99 241.903C628.549 238.821 626.84 234.661 626.863 229.42C626.84 225.147 627.987 221.403 630.304 218.186C632.62 214.97 635.825 212.463 639.918 210.663C644.012 208.864 648.678 207.964 653.919 207.964C659.271 207.964 663.916 208.875 667.852 210.697C671.81 212.496 674.88 215.027 677.061 218.288C679.243 221.549 680.356 225.327 680.401 229.623H664.411Z" fill="#253780"/>
<path d="M570.853 278H552.905L576.217 208.909H598.449L621.76 278H603.813L587.586 226.317H587.046L570.853 278ZM568.457 250.809H605.972V263.494H568.457V250.809Z" fill="#253780"/>
<path d="M545.424 208.909V278H528.725V208.909H545.424Z" fill="#253780"/>
<path d="M465.825 278V208.909H494.365C499.538 208.909 504.002 209.842 507.758 211.709C511.537 213.553 514.449 216.207 516.496 219.671C518.543 223.112 519.566 227.194 519.566 231.917C519.566 236.707 518.52 240.778 516.428 244.129C514.337 247.458 511.368 249.999 507.522 251.754C503.676 253.485 499.122 254.351 493.859 254.351H475.811V241.194H490.756C493.274 241.194 495.377 240.868 497.064 240.216C498.773 239.541 500.067 238.529 500.944 237.18C501.821 235.808 502.259 234.053 502.259 231.917C502.259 229.78 501.821 228.015 500.944 226.62C500.067 225.203 498.773 224.146 497.064 223.449C495.355 222.729 493.252 222.37 490.756 222.37H482.524V278H465.825ZM504.722 246.423L521.927 278H503.71L486.842 246.423H504.722Z" fill="#253780"/>
<path d="M399.272 222.471V208.909H457.669V222.471H436.719V278H420.256V222.471H399.272Z" fill="#253780"/>
<path d="M342.9 278V208.909H391.075V222.471H359.599V236.64H388.612V250.235H359.599V264.438H391.075V278H342.9Z" fill="#253780"/>
</svg>
